<svg xmlns="http://www.w3.org/2000/svg" xmlns:xlink="http://www.w3.org/1999/xlink" width="816" zoomAndPan="magnify" viewBox="0 0 612 791.999994" height="1056" preserveAspectRatio="xMidYMid meet" version="1.0"><path fill="#00678c" d="M 564.507812 567.613281 C 531.734375 566.699219 506.308594 570.058594 485 579.023438 C 478.863281 581.488281 469.015625 581.488281 468.207031 589.210938 C 471.488281 592.453125 471.882812 597.753906 474.757812 602.246094 C 479.671875 610.398438 488.289062 621.378906 496.066406 627.074219 L 522.292969 645.816406 C 538.273438 655.582031 556.304688 661.289062 571.875 671.066406 C 580.894531 676.769531 589.90625 684.101562 598.925781 690.21875 C 603.519531 693.476562 606.300781 698.78125 612.042969 700.804688 L 612.042969 699.574219 C 609.175781 695.921875 608.351562 690.628906 605.492188 686.539062 L 593.183594 674.734375 C 581.308594 658.851562 566.546875 644.996094 550.566406 633.601562 C 537.449219 624.636719 508.769531 612.425781 503.445312 597.363281 L 502.636719 596.449219 C 511.636719 595.535156 522.292969 592.371094 530.910156 589.921875 C 544.851562 586.273438 557.546875 587.074219 571.875 583.414062 L 591.558594 577.710938 L 591.558594 574.058594 C 584.183594 566.726562 578.855469 556.949219 571.078125 550.03125 C 550.179688 532.113281 527.214844 514.59375 503.445312 499.933594 C 490.742188 491.792969 474.34375 486.488281 460.824219 479.578125 C 455.890625 477.132812 447.707031 475.910156 444.839844 471.835938 C 437.445312 462.890625 433.359375 451.070312 428.03125 440.472656 L 394.429688 369.609375 C 387.054688 353.722656 382.535156 337.839844 373.535156 323.179688 C 331.320312 253.941406 285.410156 211.996094 214.921875 170.855469 C 199.765625 162.300781 181.734375 158.621094 162.5625 154.148438 L 131.828125 152.503906 C 125.261719 149.65625 118.714844 141.917969 112.972656 138.246094 C 89.613281 123.585938 29.367188 91.820312 12.144531 133.683594 C 1.074219 160.15625 28.539062 186.21875 37.863281 199.664062 C 44.84375 209.027344 53.84375 219.617188 58.777344 230.207031 C 61.535156 237.125 62.453125 244.464844 65.328125 251.796875 C 71.875 269.714844 78.03125 289.679688 86.636719 306.382812 C 91.230469 314.9375 96.050781 323.910156 101.792969 331.640625 C 105.074219 336.207031 110.8125 338.160156 112.035156 345.492188 C 106.292969 353.640625 105.898438 365.847656 102.621094 376.042969 C 87.859375 422.070312 93.601562 479.085938 114.496094 512.96875 C 121.066406 523.148438 136.542969 545.558594 157.539062 536.996094 C 175.984375 529.667969 171.867188 506.453125 177.195312 486.085938 C 178.4375 481.203125 177.609375 477.945312 180.0625 474.675781 L 180.0625 475.589844 L 196.871094 509.390625 C 209.574219 529.347656 231.710938 550.121094 250.148438 563.980469 C 259.976562 571.308594 267.765625 583.945312 280.054688 588.417969 L 280.054688 587.183594 L 279.246094 587.183594 C 276.785156 583.53125 273.09375 581.890625 269.8125 579.042969 C 262.4375 571.710938 254.242188 562.746094 248.503906 554.605469 C 231.296875 531.800781 216.144531 506.542969 202.613281 480.480469 C 196.046875 467.855469 190.304688 454.007812 184.996094 441.386719 C 182.515625 436.492188 182.515625 429.152344 178.425781 426.722656 C 172.273438 435.671875 163.273438 443.429688 158.742188 454.421875 C 150.953125 471.929688 150.144531 493.515625 147.28125 515.917969 C 145.625 516.328125 146.359375 515.917969 145.625 516.832031 C 132.527344 513.582031 128.007812 500.125 123.09375 488.734375 C 110.804688 459.816406 108.746094 413.386719 119.402344 379.988281 C 122.269531 371.433594 134.578125 344.550781 129.664062 336.40625 C 127.183594 328.667969 119.007812 324.195312 114.488281 318.078125 C 109.160156 310.335938 103.4375 300.570312 99.746094 292.015625 C 89.917969 269.195312 85.003906 243.953125 74.339844 221.140625 C 69.40625 210.554688 60.808594 199.554688 53.835938 189.785156 C 46.046875 178.785156 37.460938 171.046875 31.304688 158.019531 C 29.257812 153.453125 26.390625 146.207031 29.667969 141.3125 C 30.476562 138.054688 32.132812 136.75 35.390625 136.019531 C 40.71875 131.457031 55.894531 137.242188 61.222656 139.671875 C 76.378906 145.785156 89.082031 151.484375 101.785156 160.027344 C 107.527344 164.097656 113.679688 171.839844 121.054688 173.882812 L 129.671875 173.882812 C 142.789062 176.734375 157.53125 174.796875 169.8125 178.449219 C 191.535156 185.386719 211.203125 195.554688 228.835938 206.5625 C 282.515625 240.367188 326.789062 288.429688 356.699219 345.863281 C 361.613281 355.230469 363.660156 363.785156 368.179688 373.558594 C 376.796875 393.523438 387.449219 413.878906 396.039062 433.441406 C 404.65625 452.585938 412.847656 472.148438 425.136719 488.03125 C 431.292969 496.585938 455.871094 501.058594 466.933594 505.539062 C 475.136719 509.191406 487.828125 512.476562 495.222656 516.949219 C 509.148438 525.503906 523.082031 535.28125 536.191406 544.644531 C 542.738281 549.519531 563.242188 559.707031 564.464844 567.832031 Z M 146.570312 213.683594 C 140.886719 213.632812 135.289062 214.3125 129.78125 215.71875 L 129.78125 216.632812 L 130.589844 216.632812 C 133.867188 223.152344 139.609375 227.632812 143.707031 233.339844 L 153.140625 252.890625 L 153.949219 251.976562 C 159.6875 247.90625 162.5625 241.390625 162.5625 231.621094 C 160.101562 228.773438 159.699219 225.917969 157.648438 223.070312 C 155.1875 218.996094 149.859375 216.953125 146.570312 213.703125 Z M 146.570312 213.683594 " fill-opacity="1" fill-rule="evenodd"/></svg>