<svg xmlns="http://www.w3.org/2000/svg" xmlns:xlink="http://www.w3.org/1999/xlink" width="816" zoomAndPan="magnify" viewBox="0 0 612 791.999994" height="1056" preserveAspectRatio="xMidYMid meet" version="1.0"><path fill="#8cc84b" d="M 277.960938 70.109375 C 294.648438 60.65625 315.925781 60.617188 332.195312 70.109375 L 581.34375 210.589844 C 596.925781 219.351562 607.355469 236.734375 607.210938 254.695312 L 607.210938 536.367188 C 607.3125 555.082031 595.863281 572.839844 579.425781 581.433594 L 331.609375 721.269531 C 329.5 722.433594 327.324219 723.457031 325.078125 724.332031 C 322.832031 725.207031 320.539062 725.929688 318.195312 726.5 C 315.855469 727.070312 313.484375 727.480469 311.089844 727.734375 C 308.691406 727.988281 306.289062 728.082031 303.878906 728.015625 C 301.46875 727.949219 299.074219 727.722656 296.695312 727.335938 C 294.316406 726.949219 291.972656 726.410156 289.667969 725.710938 C 287.359375 725.011719 285.109375 724.164062 282.914062 723.164062 C 280.722656 722.167969 278.605469 721.027344 276.5625 719.746094 L 202.195312 676.765625 C 197.128906 673.738281 191.433594 671.339844 187.84375 666.4375 C 191.015625 662.179688 196.648438 661.636719 201.238281 659.761719 C 211.582031 656.464844 221.054688 651.414062 230.566406 646.074219 C 232.964844 644.402344 235.90625 645.03125 238.199219 646.53125 L 301.613281 683.210938 C 306.140625 685.820312 310.730469 682.378906 314.609375 680.1875 L 557.9375 542.835938 C 560.941406 541.375 562.613281 538.203125 562.359375 534.90625 L 562.359375 255.949219 C 562.695312 252.195312 560.546875 248.773438 557.144531 247.25 L 309.957031 108.019531 C 309.246094 107.527344 308.476562 107.152344 307.652344 106.890625 C 306.824219 106.632812 305.976562 106.503906 305.113281 106.5 C 304.246094 106.5 303.398438 106.625 302.570312 106.882812 C 301.742188 107.136719 300.972656 107.507812 300.257812 108 L 53.425781 247.519531 C 50.085938 249.042969 47.792969 252.421875 48.210938 256.179688 L 48.210938 535.136719 C 47.917969 538.433594 49.671875 541.542969 52.695312 542.960938 L 118.652344 580.203125 C 131.042969 586.878906 146.25 590.636719 159.894531 585.734375 C 161.378906 585.171875 162.808594 584.503906 164.191406 583.726562 C 165.574219 582.949219 166.890625 582.074219 168.140625 581.097656 C 169.386719 580.117188 170.554688 579.054688 171.644531 577.898438 C 172.730469 576.742188 173.722656 575.511719 174.621094 574.207031 C 175.523438 572.902344 176.320312 571.535156 177.011719 570.105469 C 177.703125 568.679688 178.285156 567.207031 178.75 565.691406 C 179.21875 564.179688 179.570312 562.636719 179.804688 561.066406 C 180.039062 559.5 180.152344 557.921875 180.148438 556.335938 L 180.210938 279.046875 C 179.917969 274.9375 183.796875 271.535156 187.78125 271.953125 L 219.488281 271.953125 C 223.660156 271.847656 226.9375 276.269531 226.375 280.402344 L 226.3125 559.445312 C 226.332031 584.230469 216.152344 611.1875 193.226562 623.351562 C 164.984375 637.957031 130.0625 634.890625 102.152344 620.847656 L 31.230469 581.621094 C 14.542969 573.277344 3.339844 555.25 3.445312 536.554688 L 3.445312 254.886719 C 3.460938 252.605469 3.628906 250.339844 3.949219 248.082031 C 4.269531 245.828125 4.738281 243.601562 5.351562 241.40625 C 5.96875 239.214844 6.726562 237.070312 7.625 234.976562 C 8.527344 232.886719 9.5625 230.859375 10.734375 228.90625 C 11.902344 226.949219 13.199219 225.082031 14.617188 223.300781 C 16.035156 221.515625 17.566406 219.835938 19.210938 218.257812 C 20.851562 216.679688 22.59375 215.21875 24.429688 213.871094 C 26.269531 212.523438 28.1875 211.304688 30.1875 210.214844 Z M 349.800781 265.359375 C 385.824219 263.273438 424.394531 263.980469 456.8125 281.738281 C 481.90625 295.339844 495.820312 323.882812 496.277344 351.800781 C 495.570312 355.554688 491.648438 357.644531 488.058594 357.371094 C 477.628906 357.351562 467.15625 357.515625 456.6875 357.308594 C 452.242188 357.476562 449.675781 353.386719 449.113281 349.464844 C 446.109375 336.109375 438.828125 322.902344 426.273438 316.457031 C 406.996094 306.796875 384.636719 307.277344 363.609375 307.484375 C 348.257812 308.320312 331.757812 309.632812 318.761719 318.648438 C 308.75 325.492188 305.746094 339.511719 309.3125 350.402344 C 312.648438 358.394531 321.890625 360.960938 329.421875 363.339844 C 372.851562 374.6875 418.847656 373.769531 461.460938 388.523438 C 479.089844 394.613281 496.339844 406.464844 502.390625 424.929688 C 510.273438 449.675781 506.832031 479.261719 489.246094 499.125 C 474.980469 515.480469 454.203125 524.160156 433.449219 529.210938 C 405.851562 535.367188 377.230469 535.511719 349.214844 532.757812 C 322.871094 529.753906 295.460938 522.828125 275.121094 504.882812 C 257.726562 489.777344 249.257812 466.242188 250.089844 443.542969 C 250.300781 439.703125 254.117188 437.03125 257.808594 437.34375 L 289.097656 437.34375 C 293.3125 437.054688 296.398438 440.683594 296.609375 444.648438 C 298.546875 457.167969 303.324219 470.726562 314.421875 478.03125 C 335.824219 491.84375 362.671875 490.882812 387.160156 491.28125 C 407.457031 490.382812 430.234375 490.109375 446.820312 476.675781 C 455.582031 469.015625 458.144531 456.226562 455.789062 445.210938 C 453.222656 435.90625 443.273438 431.585938 434.929688 428.519531 C 392.0625 414.957031 345.546875 419.882812 303.09375 404.523438 C 285.867188 398.433594 269.199219 386.914062 262.585938 369.203125 C 253.34375 344.164062 257.578125 313.136719 277.042969 293.941406 C 295.816406 274.851562 323.351562 267.488281 349.425781 264.859375 Z M 349.800781 265.359375 " fill-opacity="1" fill-rule="nonzero"/></svg>